HIERARCHY
ROOT Hips
{
	OFFSET 0.000000 0.000000 0.000000
	CHANNELS 6 Xposition Yposition Zposition Xrotation Yrotation Zrotation
	JOINT LeftUpLeg_virtual
	{
		OFFSET 0.000000 0.000000 0.000000
		CHANNELS 3 Xrotation Yrotation Zrotation
		JOINT LeftUpLeg
		{
			OFFSET 15.427100 -6.655098 0.678600
			CHANNELS 3 Xrotation Yrotation Zrotation
			JOINT LeftLeg
			{
				OFFSET 4.081073 -39.591068 13.024000
				CHANNELS 3 Xrotation Yrotation Zrotation
				JOINT LeftFoot
				{
					OFFSET -4.081074 -37.707932 -15.979700
					CHANNELS 3 Xrotation Yrotation Zrotation
					JOINT LeftToeBase
					{
						OFFSET 5.346399 -15.068900 20.645000
						CHANNELS 3 Xrotation Yrotation Zrotation
						JOINT LeftToe_End
						{
							OFFSET 2.754700 0.931300 11.300900
							CHANNELS 3 Xrotation Yrotation Zrotation
							End Site
							{
								OFFSET 0 0 0
							}
						}
					}
				}
			}
		}
	}
	JOINT RightUpLeg_virtual
	{
		OFFSET 0.000000 0.000000 0.000000
		CHANNELS 3 Xrotation Yrotation Zrotation
		JOINT RightUpLeg
		{
			OFFSET -15.569500 -6.655098 0.678600
			CHANNELS 3 Xrotation Yrotation Zrotation
			JOINT RightLeg
			{
				OFFSET -4.081825 -39.591045 13.023800
				CHANNELS 3 Xrotation Yrotation Zrotation
				JOINT RightFoot
				{
					OFFSET 4.081824 -37.707954 -15.979600
					CHANNELS 3 Xrotation Yrotation Zrotation
					JOINT RightToeBase
					{
						OFFSET -5.346400 -15.068900 20.645000
						CHANNELS 3 Xrotation Yrotation Zrotation
						JOINT RightToe_End
						{
							OFFSET -2.754700 0.931300 11.300900
							CHANNELS 3 Xrotation Yrotation Zrotation
							End Site
							{
								OFFSET 0 0 0
							}
						}
					}
				}
			}
		}
	}
	JOINT Spine_virtual
	{
		OFFSET 0.000000 0.000000 0.000000
		CHANNELS 3 Xrotation Yrotation Zrotation
		JOINT Spine
		{
			OFFSET -0.279200 12.230698 -2.892100
			CHANNELS 3 Xrotation Yrotation Zrotation
			JOINT Spine1
			{
				OFFSET -0.232667 10.192268 -1.242267
				CHANNELS 3 Xrotation Yrotation Zrotation
				JOINT Spine1_split
				{
					OFFSET -0.232667 10.192268 -1.242267
					CHANNELS 3 Xrotation Yrotation Zrotation
					JOINT Spine2
					{
						OFFSET -0.232667 10.192268 -1.242267
						CHANNELS 3 Xrotation Yrotation Zrotation
						JOINT Neck_virtual
						{
							OFFSET 0.000000 0.000000 0.000000
							CHANNELS 3 Xrotation Yrotation Zrotation
							JOINT Neck
							{
								OFFSET -0.418800 17.814194 8.416900
								CHANNELS 3 Xrotation Yrotation Zrotation
								JOINT Head
								{
									OFFSET 0.000000 7.031097 3.806800
									CHANNELS 3 Xrotation Yrotation Zrotation
									JOINT HeadTop_End
									{
										OFFSET 0.000000 24.646606 12.978600
										CHANNELS 3 Xrotation Yrotation Zrotation
										End Site
										{
											OFFSET 0 0 0
										}
									}
								}
							}
						}
						JOINT LeftShoulder_virtual
						{
							OFFSET 0.000000 0.000000 0.000000
							CHANNELS 3 Xrotation Yrotation Zrotation
							JOINT LeftShoulder
							{
								OFFSET 8.476499 7.247704 -3.868750
								CHANNELS 3 Xrotation Yrotation Zrotation
								JOINT LeftShoulder_split
								{
									OFFSET 8.476499 7.247704 -3.868750
									CHANNELS 3 Xrotation Yrotation Zrotation
									JOINT LeftArm
									{
										OFFSET 9.308998 -2.777710 0.208600
										CHANNELS 3 Xrotation Yrotation Zrotation
										JOINT LeftForeArm
										{
											OFFSET 29.972298 0.000000 0.000000
											CHANNELS 3 Xrotation Yrotation Zrotation
											JOINT LeftHand
											{
												OFFSET 26.026505 0.000000 0.000000
												CHANNELS 3 Xrotation Yrotation Zrotation
												End Site
												{
													OFFSET 0 0 0
												}
											}
										}
									}
								}
							}
						}
						JOINT RightShoulder_virtual
						{
							OFFSET 0.000000 0.000000 0.000000
							CHANNELS 3 Xrotation Yrotation Zrotation
							JOINT RightShoulder
							{
								OFFSET -7.570500 7.247704 -3.868750
								CHANNELS 3 Xrotation Yrotation Zrotation
								JOINT RightShoulder_split
								{
									OFFSET -7.570500 7.247704 -3.868750
									CHANNELS 3 Xrotation Yrotation Zrotation
									JOINT RightArm
									{
										OFFSET -9.308998 -2.777710 0.208500
										CHANNELS 3 Xrotation Yrotation Zrotation
										JOINT RightForeArm
										{
											OFFSET -29.972300 0.000000 0.000000
											CHANNELS 3 Xrotation Yrotation Zrotation
											JOINT RightHand
											{
												OFFSET -26.026505 0.000000 0.000000
												CHANNELS 3 Xrotation Yrotation Zrotation
												End Site
												{
													OFFSET 0 0 0
												}
											}
										}
									}
								}
							}
						}
					}
				}
			}
		}
	}
}
MOTION
Frames: 5
Frame Time: 0.03333333
-248.192474 95.470284 -13.469898 0.000000 0.000000 0.000000 -0.249580 -1.927911 0.416168 -12.874004 15.400878 9.526610 14.345303 -9.350216 0.147247 -4.384459 -11.697834 -6.587888 1.635541 -0.000004 0.000000 0.000000 0.000000 0.000000 -0.249580 -1.927911 0.416168 -4.682795 -8.845438 -9.514603 14.556448 0.278609 3.637975 -10.085450 -2.808336 4.645091 -0.140969 -0.000003 -0.000001 0.000000 0.000000 0.000000 -0.249580 -1.927911 0.416168 1.359990 0.281098 0.238756 1.526172 0.604860 0.276834 0.000000 0.000000 0.000000 0.000000 0.000000 0.000000 1.528456 0.599782 0.275481 2.397564 -0.807861 -0.311582 -5.722449 -4.753666 1.062652 0.000000 0.000000 0.000000 1.528456 0.599782 0.275481 0.680081 -3.439145 -11.860527 0.000000 0.000000 0.000000 7.201841 -16.916695 -65.380244 -0.000002 -20.680387 -0.000039 0.000000 0.000000 0.000000 1.528456 0.599782 0.275481 0.475741 8.188369 13.746941 0.000000 0.000000 0.000000 13.305185 7.816369 61.653324 -0.000003 31.239048 -0.000005 0.000000 0.000000 0.000000 
-248.145905 95.385674 -13.447151 0.000000 0.000000 0.000000 -0.173524 -1.934668 0.422455 -13.037461 15.392357 9.521695 14.576730 -9.359990 0.099878 -4.556575 -11.669999 -6.376140 1.731775 0.000003 0.000000 0.000000 0.000000 0.000000 -0.173524 -1.934668 0.422455 -4.884095 -8.906725 -9.588669 14.742808 0.400402 3.664641 -10.086731 -2.809566 4.646240 -0.157721 0.000006 0.000000 0.000000 0.000000 0.000000 -0.173524 -1.934668 0.422455 1.376623 0.296803 0.246840 1.534144 0.618928 0.275135 0.000000 0.000000 0.000000 0.000000 0.000000 0.000000 1.536387 0.613600 0.273538 2.245560 -0.804274 -0.383274 -6.001869 -4.864040 1.193530 0.000000 0.000000 0.000000 1.536387 0.613600 0.273538 0.674981 -2.709238 -11.957099 0.000000 0.000000 0.000000 6.658605 -17.652578 -64.530036 0.000001 -22.655394 -0.000007 0.000000 0.000000 0.000000 1.536387 0.613600 0.273538 0.480196 7.824797 13.908640 0.000000 0.000000 0.000000 13.803066 8.765849 60.021237 -0.000004 33.727440 0.000010 0.000000 0.000000 0.000000 
-248.073669 95.357841 -13.466759 0.000000 0.000000 0.000000 -0.089819 -1.986203 0.445368 -13.146425 15.381058 9.471329 14.693494 -9.362896 0.063002 -4.698794 -11.581082 -6.262585 1.695360 0.000002 0.000000 0.000000 0.000000 0.000000 -0.089819 -1.986203 0.445368 -5.074676 -8.912085 -9.652119 14.857243 0.486137 3.630217 -10.148586 -2.822256 4.688476 -0.180895 0.000000 0.000000 0.000000 0.000000 0.000000 -0.089819 -1.986203 0.445368 1.393908 0.337298 0.251151 1.546219 0.684569 0.271725 0.000000 0.000000 0.000000 0.000000 0.000000 0.000000 1.548310 0.680139 0.273104 2.096728 -0.783602 -0.438585 -6.737988 -4.857628 1.284561 0.000000 0.000000 0.000000 1.548310 0.680139 0.273104 0.693741 -1.794104 -11.392941 0.000000 0.000000 0.000000 6.723546 -17.114371 -63.661154 0.000003 -28.975165 0.000012 0.000000 0.000000 0.000000 1.548310 0.680139 0.273104 0.524891 7.233769 13.397729 0.000000 0.000000 0.000000 14.296286 9.848244 58.493979 -0.000011 38.634528 0.000015 0.000000 0.000000 0.000000 
-247.981522 95.462769 -13.563267 0.000000 0.000000 0.000000 -0.064934 -2.041464 0.497723 -13.064735 15.322957 9.312603 14.488279 -9.344883 0.082424 -4.595526 -11.444732 -6.415780 1.676316 0.000005 -0.000001 0.000000 0.000000 0.000000 -0.064934 -2.041464 0.497723 -5.115910 -8.913693 -9.690340 14.721170 0.549251 3.538038 -10.228400 -2.832479 4.742384 -0.112302 -0.000002 0.000001 0.000000 0.000000 0.000000 -0.064934 -2.041464 0.497723 1.382728 0.390919 0.250486 1.552735 0.816360 0.263448 0.000000 0.000000 0.000000 0.000000 0.000000 0.000000 1.554472 0.814354 0.264977 2.136421 -0.746276 -0.424607 -7.795954 -4.720161 1.455542 0.000000 0.000000 0.000000 1.554472 0.814354 0.264977 0.727396 -0.777316 -10.172332 0.000000 0.000000 0.000000 7.163297 -15.478759 -63.252504 -0.000006 -39.799403 -0.000024 0.000000 0.000000 0.000000 1.554472 0.814354 0.264977 0.589088 6.841263 12.253693 0.000000 0.000000 0.000000 15.175144 10.404250 56.827041 0.000001 47.078308 0.000006 0.000000 0.000000 0.000000 
-247.876724 95.611588 -13.759258 0.000000 0.000000 0.000000 0.093810 -2.064209 0.557114 -13.156438 15.122152 9.111728 14.215277 -9.315701 0.122638 -4.391438 -11.245573 -6.698872 1.803769 -0.000003 0.000002 0.000000 0.000000 0.000000 0.093810 -2.064209 0.557114 -5.353975 -8.897045 -9.713194 14.545031 0.556245 3.381196 -10.204116 -2.804645 4.911486 0.073966 0.000007 -0.000002 0.000000 0.000000 0.000000 0.093810 -2.064209 0.557114 1.250123 0.498007 0.290328 1.474143 1.049105 0.244177 0.000000 0.000000 0.000000 0.000000 0.000000 0.000000 1.474959 1.050315 0.238231 2.356075 -0.713907 -0.381636 -8.927371 -4.662902 1.825292 0.000000 0.000000 0.000000 1.474959 1.050315 0.238231 0.742791 0.410773 -8.702622 0.000000 0.000000 0.000000 6.708958 -13.853790 -63.740063 -0.000003 -52.254547 -0.000013 0.000000 0.000000 0.000000 1.474959 1.050315 0.238231 0.650622 6.657736 10.923950 0.000000 0.000000 0.000000 15.612971 9.985253 55.028010 -0.000025 57.559657 0.000024 0.000000 0.000000 0.000000 
